/* XPM */
static char * mrViewer_xpm[] = {
"32 32 250 2",
"  	c #FFFFFF",
". 	c #EEE1DC",
"+ 	c #E2C5BC",
"@ 	c #E5C9BF",
"# 	c #E9CDC4",
"$ 	c #E8CFC9",
"% 	c #EBD3CC",
"& 	c #EBD5D0",
"* 	c #EFD8D2",
"= 	c #F0D5CF",
"- 	c #F4E7E3",
"; 	c #DBC3BC",
"> 	c #BB8474",
", 	c #C18A76",
"' 	c #C28C7A",
") 	c #C9917C",
"! 	c #CC9684",
"~ 	c #D29B8B",
"{ 	c #CD9986",
"] 	c #CA9A8C",
"^ 	c #D4A395",
"/ 	c #D9A79D",
"( 	c #E0AFA6",
"_ 	c #DAAA9E",
": 	c #D6AA9E",
"< 	c #D5B1A5",
"[ 	c #D4AAA2",
"} 	c #DBB1A5",
"| 	c #DAADA2",
"1 	c #DCBFB8",
"2 	c #D9AFA9",
"3 	c #DAB2AA",
"4 	c #C7917E",
"5 	c #C39384",
"6 	c #D3A49B",
"7 	c #D3A6A1",
"8 	c #BA8A7C",
"9 	c #C5998A",
"0 	c #CB9D92",
"a 	c #CDA093",
"b 	c #CBA39B",
"c 	c #CCABA2",
"d 	c #B58A7D",
"e 	c #B48373",
"f 	c #BC9284",
"g 	c #BD9C8E",
"h 	c #BB8584",
"i 	c #AC8176",
"j 	c #B48A82",
"k 	c #CEAA9C",
"l 	c #C3A194",
"m 	c #C6A29A",
"n 	c #AC7B6D",
"o 	c #83584D",
"p 	c #8C6155",
"q 	c #94655D",
"r 	c #9C7162",
"s 	c #B3847A",
"t 	c #AA766A",
"u 	c #A0715F",
"v 	c #8C6862",
"w 	c #96726A",
"x 	c #825D54",
"y 	c #795348",
"z 	c #6A433B",
"A 	c #9C766E",
"B 	c #BA8D82",
"C 	c #C49D93",
"D 	c #C5ABA4",
"E 	c #694136",
"F 	c #572E29",
"G 	c #6B4541",
"H 	c #7B544B",
"I 	c #794B46",
"J 	c #8C645B",
"K 	c #916B62",
"L 	c #6E5046",
"M 	c #6D4D4C",
"N 	c #5F4037",
"O 	c #54342D",
"P 	c #664646",
"Q 	c #734C43",
"R 	c #8C5E58",
"S 	c #B29C98",
"T 	c #6B4A43",
"U 	c #A47A71",
"V 	c #897F88",
"W 	c #B07C6F",
"X 	c #A27F79",
"Y 	c #967066",
"Z 	c #8C685D",
"` 	c #7C5B55",
" .	c #83625A",
"..	c #654A46",
"+.	c #5B3A32",
"@.	c #543733",
"#.	c #5B453C",
"$.	c #74534B",
"%.	c #BC938B",
"&.	c #DFC9BE",
"*.	c #C7AFB3",
"=.	c #A4796C",
"-.	c #AB7D74",
";.	c #AD8A82",
">.	c #63453D",
",.	c #5D3E38",
"'.	c #613E35",
").	c #4B2B23",
"!.	c #B9877C",
"~.	c #926456",
"{.	c #60342D",
"].	c #5D362C",
"^.	c #D7BFBA",
"/.	c #8C5B4B",
"(.	c #724537",
"_.	c #91695F",
":.	c #5B3B20",
"<.	c #5A362A",
"[.	c #AA7464",
"}.	c #734F4B",
"|.	c #462A27",
"1.	c #9C6D62",
"2.	c #C9B3AC",
"3.	c #D5BCB4",
"4.	c #A36E64",
"5.	c #945D53",
"6.	c #664A3A",
"7.	c #442D2C",
"8.	c #2C171A",
"9.	c #2A1B1B",
"0.	c #2C2324",
"a.	c #160E10",
"b.	c #291C23",
"c.	c #3B3A3C",
"d.	c #2C292B",
"e.	c #3C3437",
"f.	c #352328",
"g.	c #583732",
"h.	c #89554C",
"i.	c #D4B7B3",
"j.	c #9B695D",
"k.	c #26221E",
"l.	c #4B3B3A",
"m.	c #1A1314",
"n.	c #110C08",
"o.	c #241914",
"p.	c #1C120C",
"q.	c #231C1A",
"r.	c #643733",
"s.	c #A37265",
"t.	c #745553",
"u.	c #7A5836",
"v.	c #7D5D5A",
"w.	c #231512",
"x.	c #292626",
"y.	c #141414",
"z.	c #1A151A",
"A.	c #64462C",
"B.	c #4C3D2C",
"C.	c #5B545A",
"D.	c #88746F",
"E.	c #1F191B",
"F.	c #2D2E33",
"G.	c #4E463B",
"H.	c #3B2A29",
"I.	c #556276",
"J.	c #6A5B3A",
"K.	c #594747",
"L.	c #A8A9B5",
"M.	c #908B96",
"N.	c #6A6466",
"O.	c #8A5D54",
"P.	c #A47168",
"Q.	c #562411",
"R.	c #472F30",
"S.	c #868C8F",
"T.	c #595253",
"U.	c #665946",
"V.	c #36251B",
"W.	c #4A4E5C",
"X.	c #4A4547",
"Y.	c #BAB6B9",
"Z.	c #BEB0AE",
"`.	c #91797D",
" +	c #615660",
".+	c #9CA2A9",
"++	c #A3A9B5",
"@+	c #6D6A6D",
"#+	c #5F5747",
"$+	c #6F431A",
"%+	c #522E0E",
"&+	c #676152",
"*+	c #747474",
"=+	c #C3C6CB",
"-+	c #BEC2C0",
";+	c #C1BDCE",
">+	c #864642",
",+	c #311B1B",
"'+	c #7B6568",
")+	c #918288",
"!+	c #A8A0A6",
"~+	c #96A0AD",
"{+	c #595E63",
"]+	c #635B55",
"^+	c #776A4E",
"/+	c #6A604E",
"(+	c #C2C6D4",
"_+	c #CDCBD4",
":+	c #C8C7C2",
"<+	c #CEA9AC",
"[+	c #C99C9C",
"}+	c #A56A68",
"|+	c #655050",
"1+	c #B4BAC9",
"2+	c #6E716E",
"3+	c #B9C8D0",
"4+	c #CAD4DB",
"5+	c #C98B90",
"6+	c #D19A93",
"7+	c #CC9589",
"8+	c #DFC8C6",
"9+	c #BA8E8A",
"0+	c #9E7A6E",
"a+	c #A29AA3",
"b+	c #95939A",
"c+	c #B5AAA7",
"d+	c #C19F83",
"e+	c #C4968B",
"f+	c #4A3843",
"g+	c #463536",
"h+	c #594B4F",
"i+	c #946B65",
"j+	c #E5D2CD",
"k+	c #E4CBC4",
"l+	c #957671",
"m+	c #524143",
"n+	c #B4938A",
"o+	c #B79086",
"p+	c #AC8D8B",
"q+	c #C6A5A2",
"r+	c #AA8682",
"s+	c #B79A99",
"t+	c #AA827C",
"u+	c #BE9B93",
"v+	c #C59B9A",
"w+	c #C89FA0",
"x+	c #CBA5A2",
"y+	c #E6CECA",
"z+	c #E7D2D1",
"A+	c #F2E3DD",
"                                                                ",
"  . + + + @ @ @ # # # # # # # $ % $ % % % & % % & * * = % = -   ",
"  ; > , ' ) ! ) ! ! ~ ~ { ] ^ ^ ^ / ( ( _ : < ( [ } | _ _ ( =   ",
"  1 > , ) ) { ~ { { ~ ] ^ ] _ [ [ 2 } 3 } } _ 2 } } } ( _ _ %   ",
"  ; ' ' , , 4 4 { 5 { ~ 6 ^ 6 7 7 [ 3 [ [ } ] 3 } | } [ _ ^ $   ",
"  + 8 8 8 8 8 9 9 0 a 0 a / [ a b 2 < c 3 a [ b 3 : | / _ / $   ",
"  ; d e 8 f g 8 8 f h 5 e i j k l g l m c l l [ 2 7 b | ^ 6 $   ",
"  ; n i o p q r s t u v w x y z y o A d d B f b 0 C 0 7 7 ^ %   ",
"  D E F G H H I o J y z K L M L N O N P Q L J R K i l 9 m 0 $   ",
"  S T x U A V W X Y Y p Z A `  .` ..+.@.#.O +.$.$.+.J j %.9 &.  ",
"  *.U U =.-.d ;.f 0 g ] s j j e u r o >.,.O '.).E ..O $.d f ;   ",
"  ; !.B d 8 h e d !.B s ~.j q 8 n -.p K Q {.F O F E ].z Z -.^.  ",
"  ^.e 8 e e > 8 !.e e e /.e (.n -.-.J _.~.o :.,.].].].<.E w ;   ",
"  ; e > [.i n -.n t t U ].x ).,.}...|.>.,.$.,.` v 1.~.x p u 2.  ",
"  3.n 4.u [.=.5.I  .6.7.8.9.0.a.b.c.d.e.b.f.7.g.I h.[.[.[.u ;   ",
"  i.t j.u r ~.I #.k.0.l.c.m.m.n.o.7.p.q.q.o.b.l.P r./.s.W [.;   ",
"  3.t o t.u.v.` w.q.x.p.y.k.k.o.z.9.A.B.k.C.b.c.7.$.y /.s.s.3.  ",
"  i.u h.|.D.M l.0.E.E.F.d.G.A.H.I.F.:.J.K.L.M.N.H.N $.R O.P.i.  ",
"  3.4.q Q.R.R.0.m.E.c.S.T.U.A.V.W.X.A.J.C.L.Y.Z.`.P Q O.q 5.i.  ",
"  i.O.Q O 8.w.9.f. +.+++@+#+L $+%+:.u.&+*+=+-+;+Z.;.>+5.=.[.2.  ",
"  ^.r Z H M H.,+'+)+!+L.~+{+]+^+/+^+]+N.L.(+_+:+<+[+!.}+s 8 ;   ",
"  ; -.U w ` >.#.7.|+V !+1+.+@+]+T.]+2+++3+4+_++ <+5+6+7+u ] ;   ",
"  8+9+%.Y x 0+ ...@.).K.'+S.a+b+.+++1+;+1+c+S V }+}+n t u d+;   ",
"  8+e+B Y d K Z w  .o f+f.b.g+g+h+f+l.K.T v i+}+V 9+%.g g g j+  ",
"  k+e+f f X =.0+w A $.l+l+D.m+]+m+h+N.'+x X 9+i , 5+n+m k k &   ",
"  k+] 9 { f o+s =.U p w l+l+` n+p+t.p+;.v 9+j 9+%.e+q+m m k k+  ",
"  @ 9 ] 9 f f d n+B -.B U K r+n+o+;.s+t+U 9+9+C [+q+m c b a k+  ",
"  8+9 ] 9 5 5 g f %.f o+t+j u+u+n+r+v+s+9+w+x+[+q+x+q+c k 9 k+  ",
"  + e+e+{ 9 9 e+e+C 9 C %.v+b b u+q+[+m [+[+[+b [+x+c [ C { k+  ",
"  # ] e+C 7+0 0 e+0 b b m m [ b k b x+x+[+w+[+5+b 7 [ 0 ~ 5 @   ",
"  - # k+y+# $ $ k+j+j+z+j+z+z+z+y+y+y+z+k+y+y+y+% % % k+k+@ A+  ",
"                                                                "};
