/* XPM */
static const char * const viewer16_xpm[] = {
"16 16 245 2",
"  	c #FBF9F8",
". 	c #F2E5E1",
"+ 	c #F3E6E2",
"@ 	c #F3E7E2",
"# 	c #F5E9E5",
"$ 	c #F4E9E5",
"% 	c #F5EAE7",
"& 	c #F5EBE7",
"* 	c #F6ECE9",
"= 	c #F7EDEA",
"- 	c #F8EDEA",
"; 	c #F7EBE8",
"> 	c #FCFAF9",
", 	c #EEE2DF",
"' 	c #B97E6B",
") 	c #C58C77",
"! 	c #CC9481",
"~ 	c #CA9480",
"{ 	c #CE9788",
"] 	c #CA9787",
"^ 	c #D5A598",
"/ 	c #D5A59C",
"( 	c #DDAEA5",
"_ 	c #D8AA9E",
": 	c #D9ACA3",
"< 	c #D7ACA1",
"[ 	c #DAAB9F",
"} 	c #D9A69A",
"| 	c #F0E5E1",
"1 	c #BC8877",
"2 	c #BC8977",
"3 	c #C2907F",
"4 	c #C8998A",
"5 	c #CE9D8D",
"6 	c #D6A69B",
"7 	c #D2A59C",
"8 	c #D3A8A2",
"9 	c #D3AEA5",
"0 	c #D6ABA1",
"a 	c #CFA59B",
"b 	c #D9AEA3",
"c 	c #D8ABA1",
"d 	c #D7A598",
"e 	c #F4E9E6",
"f 	c #EFE5E2",
"g 	c #B38375",
"h 	c #A07467",
"i 	c #AA8073",
"j 	c #B7877B",
"k 	c #AB7C73",
"l 	c #9C7267",
"m 	c #987166",
"n 	c #9F7A6D",
"o 	c #BB9489",
"p 	c #C39C91",
"q 	c #CAA398",
"r 	c #D1A69E",
"s 	c #D1A59C",
"t 	c #D2A095",
"u 	c #F5EAE8",
"v 	c #E1D6D3",
"w 	c #5C362E",
"x 	c #8A625B",
"y 	c #876360",
"z 	c #8D675F",
"A 	c #795248",
"B 	c #89665C",
"C 	c #72544E",
"D 	c #5F413C",
"E 	c #563733",
"F 	c #5E4138",
"G 	c #78514A",
"H 	c #7D5950",
"I 	c #B78F83",
"J 	c #C2988D",
"K 	c #F3E8E4",
"L 	c #EAE0E0",
"M 	c #B08177",
"N 	c #AF8275",
"O 	c #B5877E",
"P 	c #C09286",
"Q 	c #C1978B",
"R 	c #AC8076",
"S 	c #B28377",
"T 	c #A87869",
"U 	c #815B50",
"V 	c #5D3831",
"W 	c #53302A",
"X 	c #664038",
"Y 	c #5B3830",
"Z 	c #AC8074",
"` 	c #EEE3E0",
" .	c #EEE3E1",
"..	c #B68272",
"+.	c #AE7E6F",
"@.	c #B48274",
"#.	c #B38072",
"$.	c #B68476",
"%.	c #8C5F51",
"&.	c #6E463A",
"*.	c #916962",
"=.	c #714D46",
"-.	c #81594E",
";.	c #634438",
">.	c #7A5248",
",.	c #6F483D",
"'.	c #855A4E",
").	c #EBE1DE",
"!.	c #ECDFDD",
"~.	c #A16D61",
"{.	c #A47362",
"].	c #916055",
"^.	c #5D443E",
"/.	c #44322E",
"(.	c #251C1F",
"_.	c #161011",
":.	c #332829",
"<.	c #221E1F",
"[.	c #221618",
"}.	c #412C2D",
"|.	c #714440",
"1.	c #A67161",
"2.	c #A77160",
"3.	c #F1E6E4",
"4.	c #ECE0DE",
"5.	c #936153",
"6.	c #6C5347",
"7.	c #715452",
"8.	c #1E1616",
"9.	c #1F1A1A",
"0.	c #292624",
"a.	c #3B2A1F",
"b.	c #2C2E39",
"c.	c #664C2E",
"d.	c #635C61",
"e.	c #514C52",
"f.	c #4F352F",
"g.	c #80564C",
"h.	c #9A685D",
"i.	c #ECE0DD",
"j.	c #EDE1DE",
"k.	c #8B5B53",
"l.	c #3F1F19",
"m.	c #2D1E1E",
"n.	c #2C2126",
"o.	c #899096",
"p.	c #60574E",
"q.	c #5E3C24",
"r.	c #4C3B32",
"s.	c #6E5738",
"t.	c #8C8C93",
"u.	c #C3BEC2",
"v.	c #99807E",
"w.	c #814C44",
"x.	c #9A665A",
"y.	c #E9DEDC",
"z.	c #EFE4E1",
"A.	c #9B7064",
"B.	c #835F59",
"C.	c #432D29",
"D.	c #705B5D",
"E.	c #A7A1A9",
"F.	c #949EAA",
"G.	c #665F54",
"H.	c #645B4D",
"I.	c #707072",
"J.	c #C0C9D4",
"K.	c #D6CECE",
"L.	c #CE9FA4",
"M.	c #C48C84",
"N.	c #B48375",
"O.	c #F0E6E6",
"P.	c #BE9188",
"Q.	c #956E63",
"R.	c #916D63",
"S.	c #73554F",
"T.	c #553835",
"U.	c #4D4146",
"V.	c #74676D",
"W.	c #7C7982",
"X.	c #877F87",
"Y.	c #958282",
"Z.	c #987675",
"`.	c #9E7475",
" +	c #B28679",
".+	c #B38E7A",
"++	c #F1E7E5",
"@+	c #F3E8E5",
"#+	c #C19385",
"$+	c #BB8F82",
"%+	c #AC8377",
"&+	c #9F776D",
"*+	c #88645B",
"=+	c #9A7E78",
"-+	c #77605B",
";+	c #6D5657",
">+	c #947E7D",
",+	c #99736C",
"'+	c #B58A84",
")+	c #C58E84",
"!+	c #C09F98",
"~+	c #CBA799",
"{+	c #F4E9E7",
"]+	c #F2E6E4",
"^+	c #C69687",
"/+	c #C19586",
"(+	c #BC9384",
"_+	c #BA9288",
":+	c #B88C81",
"<+	c #A1786F",
"[+	c #B8968F",
"}+	c #B08B83",
"|+	c #B79594",
"1+	c #B88C88",
"2+	c #C59B97",
"3+	c #C8A4A2",
"4+	c #C8A7A0",
"5+	c #C99E91",
"6+	c #F3E7E4",
"7+	c #F4E6E1",
"8+	c #C09084",
"9+	c #C79587",
"0+	c #C6978B",
"a+	c #C4968B",
"b+	c #C79D92",
"c+	c #C19993",
"d+	c #CDA39A",
"e+	c #C6A299",
"f+	c #C89F9B",
"g+	c #C7999A",
"h+	c #C79594",
"i+	c #CA9F9B",
"j+	c #C59181",
"k+	c #F3E7E3",
"l+	c #F4E7E3",
"m+	c #F5E9E6",
"n+	c #F3E9E7",
"o+	c #F4EBEA",
"p+	c #F4EBEB",
"q+	c #F4E8E7",
"r+	c #F4EAE9",
"s+	c #F4EAE7",
"t+	c #F6ECE8",
"u+	c #F3E6E3",
"v+	c #FCF9F8",
"  . + @ # # # $ % & * & = - ; > ",
", ' ) ! ~ { ] ^ / ( _ : < [ } ; ",
"| 1 2 3 4 5 6 7 8 9 0 a b c d e ",
"f g h i j k l m n o p q r s t u ",
"v w x y z A B C D E F G H I J K ",
"L M N O P Q R S T U V W X Y Z ` ",
" ...+.@.#.$.%.&.*.=.-.;.>.,.'.).",
"!.~.{.].^./.(._.:.<.[.}.|.1.2.3.",
"4.5.6.7.8.9.0.a.b.c.d.e.f.g.h.i.",
"j.k.l.m.n.o.p.q.r.s.t.u.v.w.x.y.",
"z.A.B.C.D.E.F.G.H.I.J.K.L.M.N.z.",
"O.P.Q.R.S.T.U.V.W.X.Y.Z.`. +.+++",
"@+#+$+%+&+*+=+-+;+>+,+'+)+!+~+{+",
"]+^+/+(+_+:+<+[+}+|+1+2+3+4+5+6+",
"7+8+9+0+a+b+c+d+e+f+g+h+i+a j+k+",
"> l+m+% n+o+o+p+q+r+@+s+t+e u+v+"};
