/* XPM */
static char * reel_24_xpm[] = {
"24 24 51 1",
" 	c None",
".	c #000000",
"+	c #181821",
"@	c #303043",
"#	c #606086",
"$	c #20202C",
"%	c #101016",
"&	c #606085",
"*	c #404059",
"=	c #08080B",
"-	c #484864",
";	c #20202D",
">	c #686891",
",	c #50506F",
"'	c #5C5C80",
")	c #292939",
"!	c #7D7DAF",
"~	c #2D2D3E",
"{	c #09090C",
"]	c #37373E",
"^	c #282830",
"/	c #66668F",
"(	c #323246",
"_	c #1B1B26",
":	c #111118",
"<	c #030304",
"[	c #010101",
"}	c #040405",
"|	c #0A0A0F",
"1	c #15151D",
"2	c #1D1D28",
"3	c #3C3C54",
"4	c #7575A3",
"5	c #73738C",
"6	c #79799F",
"7	c #8080B2",
"8	c #7F7FB1",
"9	c #7777A6",
"0	c #63638A",
"a	c #525272",
"b	c #464660",
"c	c #41415A",
"d	c #484863",
"e	c #555576",
"f	c #6A6A94",
"g	c #7979A9",
"h	c #70709C",
"i	c #3A3A46",
"j	c #6D6D92",
"k	c #1A1A24",
"l	c #2B2B3B",
"                        ",
"                        ",
"                        ",
"          ..+..         ",
"      ..@...#...$%.     ",
"     ...+&@.+..&*=..    ",
"    %$$$$.@+..-.%$$$=   ",
"   .;****.......;***%.  ",
"   ......+@...-........ ",
"    ...%>-..&..>,=...'* ",
"   ....;*...#..%*%..)!* ",
"   .~@......#.....{]^;% ",
"    @#/(_:{<[}|1234567* ",
"    ..,890abcdefg8hij7* ",
"     .=;;7777777,;+.+;% ",
"        .........  k>7* ",
"           ...    k*hhl ",
"                 .>h@#. ",
"                 .>7>.  ",
"                  k*k   ",
"                        ",
"                        ",
"                        ",
"                        "};
